<svg xmlns="http://www.w3.org/2000/svg" version="1" width="602.362" height="490.819"><path d="M445.113 162.782l-.03-.914-.04-1.303-.038-.965c-3-76.944-66.324-138.394-143.98-138.394-79.593 0-144.116 64.506-144.116 144.101l.005.19v.348l.002.101.005.134V166.393l.005.182.003.053v.242l.005.144V167.173l.01.579v.045c1.336 78.45 65.318 141.616 144.099 141.616 79.585 0 144.1-64.538 144.083-144.106h.017c0-.846-.007-1.686-.03-2.525zm-276.048 54.685c19.242 38.95 59.349 65.748 105.744 65.748 65.111 0 117.9-52.789 117.9-117.908h-26.262c0 57.518-46.625 104.135-104.135 104.135-43.143 0-80.154-26.226-95.962-63.603 14.967 30.312 46.18 51.177 82.267 51.177 50.653 0 91.702-41.074 91.702-91.709h-26.244c0 43.052-34.9 77.947-77.947 77.947-42.24 0-76.633-33.602-77.904-75.55-.015-.8-.033-1.594-.033-2.397h24.98c0-71.98 58.348-130.346 130.353-130.346 53.499 0 99.482 32.251 119.567 78.366-19.211-39.054-59.395-65.94-105.84-65.94-65.136 0-117.917 52.802-117.917 117.92h26.269c0-57.513 46.617-104.165 104.12-104.165 43.218 0 80.28 26.31 96.062 63.765-14.936-30.38-46.197-51.294-82.37-51.294-50.607 0-91.674 41.05-91.674 91.694h26.234c0-43.046 34.91-77.957 77.957-77.957 42.37 0 76.825 33.797 77.921 75.89.01.688.025 1.376.025 2.067h-25.006c0 71.988-58.34 130.337-130.337 130.337-53.43 0-99.347-32.16-119.47-78.177zM84.03 434.255H64.048l15.876-34.519 4.106 34.52zm-35.393 32.81l5.864-12.715h31.435l1.533 12.714h31.464l-17.54-96.398h-32.14l-51.536 96.398h30.92zm77.912 0l16.997-96.399h31.607l-16.99 96.398H126.55zm96.04-73.905h14.744c7.375 0 12.158 3.207 10.939 10.04-1.185 6.7-6.826 9.104-16.596 9.104h-12.464l3.376-19.144zm2.53 40.292c14.734 0 16.14 4.151 13.933 16.747-1.533 8.563-1.8 14.727-1.374 16.865h31.99l.545-2.941c-3.76 0-2.601-4.283-.374-16.871 3.411-19.41-2.325-21.818-11.84-25.567 11.794-3.084 18.403-12.455 20.372-23.553 3.306-18.752-5.744-27.466-37.877-27.466h-45.529l-16.989 96.398h31.597l5.907-33.612h9.638zm105.91-6.69c10.04 0 17.29.544 15.812 8.97-1.282 7.235-7.431 8.838-15.224 8.838h-13.782l3.136-17.807h10.058zm6.974-33.602c6.7 0 12.838.144 11.518 7.626-.998 5.622-6.056 8.444-12.318 8.444h-13.141l2.823-16.07h11.118zm-8.74 73.904c25.025 0 42.823-7.502 46.618-29.052 1.86-10.43-2.192-19.41-12.141-22.1 6.815-3.876 14.537-11.1 16.285-21.004 3.358-19.153-13.015-24.242-34.716-24.242h-46.04l-16.996 96.398h46.99zm71.24-96.398h31.588l-10.172 57.708c-1.674 9.507-1.257 17.684 11.74 17.684 11.358 0 15.992-7.243 17.835-17.684l10.182-57.708h31.615l-9.639 54.493c-5.451 30.92-22.135 44.453-54.152 44.453-29.852 0-44.453-11.375-38.59-44.597l9.594-54.349zm154.114 27.974c.053-3.34-1.338-5.336-3.414-6.548-2.03-1.202-4.783-1.755-7.838-1.755-6.985 0-10.406 2.005-11.02 5.505-2.556 14.467 54.465 5.48 48.284 40.567-3.947 22.353-24.482 33.203-50.973 33.203-25.444 0-39.428-14.85-37.032-32.266h30.262c.07 3.482 1.495 6.03 3.891 7.626 2.245 1.611 5.452 2.421 8.525 2.421 7.901 0 13.578-2.548 14.396-7.108 2.558-14.59-54.652-4.553-48.147-41.37 3.598-20.479 23.09-30.794 47.185-30.794 26.78 0 36.577 13.664 35.875 30.52h-29.994z" fill="#081d58" fill-rule="evenodd"/></svg>